<?xml version="1.0" encoding="UTF-8" standalone="no"?>
<!DOCTYPE svg PUBLIC "-//W3C//DTD SVG 1.1//EN"
 "http://www.w3.org/Graphics/SVG/1.1/DTD/svg11.dtd">
<!-- Generated by graphviz version 3.0.0 (20220226.1711)
 -->
<!-- Pages: 1 -->
<svg width="1069pt" height="476pt"
 viewBox="0.00 0.00 1068.50 476.00" xmlns="http://www.w3.org/2000/svg" xmlns:xlink="http://www.w3.org/1999/xlink">
<g id="graph0" class="graph" transform="scale(1 1) rotate(0) translate(4 472)">
<polygon fill="white" stroke="transparent" points="-4,4 -4,-472 1064.5,-472 1064.5,4 -4,4"/>
<!-- [root] aci_application_epg.ll_app_epg (expand) -->
<g id="node1" class="node">
<title>[root] aci_application_epg.ll_app_epg (expand)</title>
<polygon fill="none" stroke="black" points="554,-324 365,-324 365,-288 554,-288 554,-324"/>
<text text-anchor="middle" x="459.5" y="-302.3" font-family="Times,serif" font-size="14.00">aci_application_epg.ll_app_epg</text>
</g>
<!-- [root] aci_application_profile.dw_ap (expand) -->
<g id="node2" class="node">
<title>[root] aci_application_profile.dw_ap (expand)</title>
<polygon fill="none" stroke="black" points="533.5,-252 351.5,-252 351.5,-216 533.5,-216 533.5,-252"/>
<text text-anchor="middle" x="442.5" y="-230.3" font-family="Times,serif" font-size="14.00">aci_application_profile.dw_ap</text>
</g>
<!-- [root] aci_application_epg.ll_app_epg (expand)&#45;&gt;[root] aci_application_profile.dw_ap (expand) -->
<g id="edge1" class="edge">
<title>[root] aci_application_epg.ll_app_epg (expand)&#45;&gt;[root] aci_application_profile.dw_ap (expand)</title>
<path fill="none" stroke="black" d="M455.3,-287.7C453.4,-279.9 451.12,-270.51 449.02,-261.83"/>
<polygon fill="black" stroke="black" points="452.42,-261 446.65,-252.1 445.61,-262.65 452.42,-261"/>
</g>
<!-- [root] aci_tenant.Villains (expand) -->
<g id="node8" class="node">
<title>[root] aci_tenant.Villains (expand)</title>
<polygon fill="none" stroke="black" points="422.5,-180 304.5,-180 304.5,-144 422.5,-144 422.5,-180"/>
<text text-anchor="middle" x="363.5" y="-158.3" font-family="Times,serif" font-size="14.00">aci_tenant.Villains</text>
</g>
<!-- [root] aci_application_profile.dw_ap (expand)&#45;&gt;[root] aci_tenant.Villains (expand) -->
<g id="edge2" class="edge">
<title>[root] aci_application_profile.dw_ap (expand)&#45;&gt;[root] aci_tenant.Villains (expand)</title>
<path fill="none" stroke="black" d="M422.97,-215.7C413.12,-206.97 401.01,-196.24 390.3,-186.75"/>
<polygon fill="black" stroke="black" points="392.61,-184.12 382.8,-180.1 387.97,-189.36 392.61,-184.12"/>
</g>
<!-- [root] aci_bridge_domain.bd_apps (expand) -->
<g id="node3" class="node">
<title>[root] aci_bridge_domain.bd_apps (expand)</title>
<polygon fill="none" stroke="black" points="730.5,-252 560.5,-252 560.5,-216 730.5,-216 730.5,-252"/>
<text text-anchor="middle" x="645.5" y="-230.3" font-family="Times,serif" font-size="14.00">aci_bridge_domain.bd_apps</text>
</g>
<!-- [root] aci_bridge_domain.bd_apps (expand)&#45;&gt;[root] aci_tenant.Villains (expand) -->
<g id="edge3" class="edge">
<title>[root] aci_bridge_domain.bd_apps (expand)&#45;&gt;[root] aci_tenant.Villains (expand)</title>
<path fill="none" stroke="black" d="M576.88,-215.97C533.07,-205.09 476.48,-191.05 432.59,-180.15"/>
<polygon fill="black" stroke="black" points="433.41,-176.75 422.86,-177.73 431.72,-183.54 433.41,-176.75"/>
</g>
<!-- [root] aci_bridge_domain.bd_netsvcs (expand) -->
<g id="node4" class="node">
<title>[root] aci_bridge_domain.bd_netsvcs (expand)</title>
<polygon fill="none" stroke="black" points="1003,-252 818,-252 818,-216 1003,-216 1003,-252"/>
<text text-anchor="middle" x="910.5" y="-230.3" font-family="Times,serif" font-size="14.00">aci_bridge_domain.bd_netsvcs</text>
</g>
<!-- [root] aci_bridge_domain.bd_netsvcs (expand)&#45;&gt;[root] aci_tenant.Villains (expand) -->
<g id="edge4" class="edge">
<title>[root] aci_bridge_domain.bd_netsvcs (expand)&#45;&gt;[root] aci_tenant.Villains (expand)</title>
<path fill="none" stroke="black" d="M817.71,-221.13C708.64,-207.17 530.16,-184.33 432.57,-171.84"/>
<polygon fill="black" stroke="black" points="432.89,-168.35 422.52,-170.55 432,-175.29 432.89,-168.35"/>
</g>
<!-- [root] aci_subnet.subnet_app1 (expand) -->
<g id="node5" class="node">
<title>[root] aci_subnet.subnet_app1 (expand)</title>
<polygon fill="none" stroke="black" points="718.5,-324 572.5,-324 572.5,-288 718.5,-288 718.5,-324"/>
<text text-anchor="middle" x="645.5" y="-302.3" font-family="Times,serif" font-size="14.00">aci_subnet.subnet_app1</text>
</g>
<!-- [root] aci_subnet.subnet_app1 (expand)&#45;&gt;[root] aci_bridge_domain.bd_apps (expand) -->
<g id="edge5" class="edge">
<title>[root] aci_subnet.subnet_app1 (expand)&#45;&gt;[root] aci_bridge_domain.bd_apps (expand)</title>
<path fill="none" stroke="black" d="M645.5,-287.7C645.5,-279.98 645.5,-270.71 645.5,-262.11"/>
<polygon fill="black" stroke="black" points="649,-262.1 645.5,-252.1 642,-262.1 649,-262.1"/>
</g>
<!-- [root] aci_subnet.subnet_app2 (expand) -->
<g id="node6" class="node">
<title>[root] aci_subnet.subnet_app2 (expand)</title>
<polygon fill="none" stroke="black" points="882.5,-324 736.5,-324 736.5,-288 882.5,-288 882.5,-324"/>
<text text-anchor="middle" x="809.5" y="-302.3" font-family="Times,serif" font-size="14.00">aci_subnet.subnet_app2</text>
</g>
<!-- [root] aci_subnet.subnet_app2 (expand)&#45;&gt;[root] aci_bridge_domain.bd_apps (expand) -->
<g id="edge6" class="edge">
<title>[root] aci_subnet.subnet_app2 (expand)&#45;&gt;[root] aci_bridge_domain.bd_apps (expand)</title>
<path fill="none" stroke="black" d="M769.38,-287.88C746.86,-278.26 718.58,-266.19 694.73,-256.01"/>
<polygon fill="black" stroke="black" points="696.06,-252.77 685.49,-252.07 693.31,-259.21 696.06,-252.77"/>
</g>
<!-- [root] aci_subnet.subnet_netsvcs (expand) -->
<g id="node7" class="node">
<title>[root] aci_subnet.subnet_netsvcs (expand)</title>
<polygon fill="none" stroke="black" points="1060.5,-324 900.5,-324 900.5,-288 1060.5,-288 1060.5,-324"/>
<text text-anchor="middle" x="980.5" y="-302.3" font-family="Times,serif" font-size="14.00">aci_subnet.subnet_netsvcs</text>
</g>
<!-- [root] aci_subnet.subnet_netsvcs (expand)&#45;&gt;[root] aci_bridge_domain.bd_netsvcs (expand) -->
<g id="edge7" class="edge">
<title>[root] aci_subnet.subnet_netsvcs (expand)&#45;&gt;[root] aci_bridge_domain.bd_netsvcs (expand)</title>
<path fill="none" stroke="black" d="M963.2,-287.7C954.64,-279.14 944.16,-268.66 934.8,-259.3"/>
<polygon fill="black" stroke="black" points="937.15,-256.7 927.6,-252.1 932.2,-261.65 937.15,-256.7"/>
</g>
<!-- [root] provider[&quot;registry.terraform.io/ciscodevnet/aci&quot;] -->
<g id="node14" class="node">
<title>[root] provider[&quot;registry.terraform.io/ciscodevnet/aci&quot;]</title>
<polygon fill="none" stroke="black" points="363.5,-108 105.43,-90 363.5,-72 621.57,-90 363.5,-108"/>
<text text-anchor="middle" x="363.5" y="-86.3" font-family="Times,serif" font-size="14.00">provider[&quot;registry.terraform.io/ciscodevnet/aci&quot;]</text>
</g>
<!-- [root] aci_tenant.Villains (expand)&#45;&gt;[root] provider[&quot;registry.terraform.io/ciscodevnet/aci&quot;] -->
<g id="edge8" class="edge">
<title>[root] aci_tenant.Villains (expand)&#45;&gt;[root] provider[&quot;registry.terraform.io/ciscodevnet/aci&quot;]</title>
<path fill="none" stroke="black" d="M363.5,-143.7C363.5,-135.98 363.5,-126.71 363.5,-118.11"/>
<polygon fill="black" stroke="black" points="367,-118.1 363.5,-108.1 360,-118.1 367,-118.1"/>
</g>
<!-- [root] aci_vrf.blue_vrf (expand) -->
<g id="node9" class="node">
<title>[root] aci_vrf.blue_vrf (expand)</title>
<polygon fill="none" stroke="black" points="346.5,-324 242.5,-324 242.5,-288 346.5,-288 346.5,-324"/>
<text text-anchor="middle" x="294.5" y="-302.3" font-family="Times,serif" font-size="14.00">aci_vrf.blue_vrf</text>
</g>
<!-- [root] aci_vrf.blue_vrf (expand)&#45;&gt;[root] aci_tenant.Villains (expand) -->
<g id="edge9" class="edge">
<title>[root] aci_vrf.blue_vrf (expand)&#45;&gt;[root] aci_tenant.Villains (expand)</title>
<path fill="none" stroke="black" d="M302.82,-287.87C314.74,-263.35 336.76,-218.03 350.74,-189.26"/>
<polygon fill="black" stroke="black" points="353.92,-190.71 355.15,-180.19 347.63,-187.65 353.92,-190.71"/>
</g>
<!-- [root] output.aci_tenant_dn -->
<g id="node10" class="node">
<title>[root] output.aci_tenant_dn</title>
<polygon fill="none" stroke="black" points="125,-252 0,-252 0,-216 131,-216 131,-246 125,-252"/>
<polyline fill="none" stroke="black" points="125,-252 125,-246 "/>
<polyline fill="none" stroke="black" points="131,-246 125,-246 "/>
<text text-anchor="middle" x="65.5" y="-230.3" font-family="Times,serif" font-size="14.00">output.aci_tenant_dn</text>
</g>
<!-- [root] output.aci_tenant_dn&#45;&gt;[root] aci_tenant.Villains (expand) -->
<g id="edge10" class="edge">
<title>[root] output.aci_tenant_dn&#45;&gt;[root] aci_tenant.Villains (expand)</title>
<path fill="none" stroke="black" d="M131.27,-217.55C179.69,-206.18 245.39,-190.74 294.55,-179.2"/>
<polygon fill="black" stroke="black" points="295.53,-182.56 304.47,-176.87 293.93,-175.75 295.53,-182.56"/>
</g>
<!-- [root] output.aci_tenant_name -->
<g id="node11" class="node">
<title>[root] output.aci_tenant_name</title>
<polygon fill="none" stroke="black" points="214,-396 73,-396 73,-360 220,-360 220,-390 214,-396"/>
<polyline fill="none" stroke="black" points="214,-396 214,-390 "/>
<polyline fill="none" stroke="black" points="220,-390 214,-390 "/>
<text text-anchor="middle" x="146.5" y="-374.3" font-family="Times,serif" font-size="14.00">output.aci_tenant_name</text>
</g>
<!-- [root] output.aci_tenant_name&#45;&gt;[root] aci_tenant.Villains (expand) -->
<g id="edge11" class="edge">
<title>[root] output.aci_tenant_name&#45;&gt;[root] aci_tenant.Villains (expand)</title>
<path fill="none" stroke="black" d="M163.02,-359.78C180.41,-341.74 208.65,-312.65 233.5,-288 269.31,-252.48 311.53,-212.16 337.91,-187.15"/>
<polygon fill="black" stroke="black" points="340.39,-189.63 345.24,-180.22 335.57,-184.55 340.39,-189.63"/>
</g>
<!-- [root] output.aci_vrf_dn -->
<g id="node12" class="node">
<title>[root] output.aci_vrf_dn</title>
<polygon fill="none" stroke="black" points="345,-396 238,-396 238,-360 351,-360 351,-390 345,-396"/>
<polyline fill="none" stroke="black" points="345,-396 345,-390 "/>
<polyline fill="none" stroke="black" points="351,-390 345,-390 "/>
<text text-anchor="middle" x="294.5" y="-374.3" font-family="Times,serif" font-size="14.00">output.aci_vrf_dn</text>
</g>
<!-- [root] output.aci_vrf_dn&#45;&gt;[root] aci_vrf.blue_vrf (expand) -->
<g id="edge12" class="edge">
<title>[root] output.aci_vrf_dn&#45;&gt;[root] aci_vrf.blue_vrf (expand)</title>
<path fill="none" stroke="black" d="M294.5,-359.7C294.5,-351.98 294.5,-342.71 294.5,-334.11"/>
<polygon fill="black" stroke="black" points="298,-334.1 294.5,-324.1 291,-334.1 298,-334.1"/>
</g>
<!-- [root] output.aci_vrf_name -->
<g id="node13" class="node">
<title>[root] output.aci_vrf_name</title>
<polygon fill="none" stroke="black" points="493.5,-396 369.5,-396 369.5,-360 499.5,-360 499.5,-390 493.5,-396"/>
<polyline fill="none" stroke="black" points="493.5,-396 493.5,-390 "/>
<polyline fill="none" stroke="black" points="499.5,-390 493.5,-390 "/>
<text text-anchor="middle" x="434.5" y="-374.3" font-family="Times,serif" font-size="14.00">output.aci_vrf_name</text>
</g>
<!-- [root] output.aci_vrf_name&#45;&gt;[root] aci_vrf.blue_vrf (expand) -->
<g id="edge13" class="edge">
<title>[root] output.aci_vrf_name&#45;&gt;[root] aci_vrf.blue_vrf (expand)</title>
<path fill="none" stroke="black" d="M400.25,-359.88C381.44,-350.47 357.92,-338.71 337.83,-328.67"/>
<polygon fill="black" stroke="black" points="339.39,-325.53 328.88,-324.19 336.26,-331.79 339.39,-325.53"/>
</g>
<!-- [root] var.apic_url -->
<g id="node15" class="node">
<title>[root] var.apic_url</title>
<polygon fill="none" stroke="black" points="398,-36 323,-36 323,0 404,0 404,-30 398,-36"/>
<polyline fill="none" stroke="black" points="398,-36 398,-30 "/>
<polyline fill="none" stroke="black" points="404,-30 398,-30 "/>
<text text-anchor="middle" x="363.5" y="-14.3" font-family="Times,serif" font-size="14.00">var.apic_url</text>
</g>
<!-- [root] provider[&quot;registry.terraform.io/ciscodevnet/aci&quot;]&#45;&gt;[root] var.apic_url -->
<g id="edge19" class="edge">
<title>[root] provider[&quot;registry.terraform.io/ciscodevnet/aci&quot;]&#45;&gt;[root] var.apic_url</title>
<path fill="none" stroke="black" d="M363.5,-71.7C363.5,-63.98 363.5,-54.71 363.5,-46.11"/>
<polygon fill="black" stroke="black" points="367,-46.1 363.5,-36.1 360,-46.1 367,-46.1"/>
</g>
<!-- [root] provider[&quot;registry.terraform.io/ciscodevnet/aci&quot;] (close) -->
<g id="node16" class="node">
<title>[root] provider[&quot;registry.terraform.io/ciscodevnet/aci&quot;] (close)</title>
<ellipse fill="none" stroke="black" cx="748.5" cy="-378" rx="231.26" ry="18"/>
<text text-anchor="middle" x="748.5" y="-374.3" font-family="Times,serif" font-size="14.00">[root] provider[&quot;registry.terraform.io/ciscodevnet/aci&quot;] (close)</text>
</g>
<!-- [root] provider[&quot;registry.terraform.io/ciscodevnet/aci&quot;] (close)&#45;&gt;[root] aci_application_epg.ll_app_epg (expand) -->
<g id="edge14" class="edge">
<title>[root] provider[&quot;registry.terraform.io/ciscodevnet/aci&quot;] (close)&#45;&gt;[root] aci_application_epg.ll_app_epg (expand)</title>
<path fill="none" stroke="black" d="M681.47,-360.76C639.15,-350.51 584.24,-337.21 539.63,-326.41"/>
<polygon fill="black" stroke="black" points="540.23,-322.95 529.69,-324 538.58,-329.76 540.23,-322.95"/>
</g>
<!-- [root] provider[&quot;registry.terraform.io/ciscodevnet/aci&quot;] (close)&#45;&gt;[root] aci_subnet.subnet_app1 (expand) -->
<g id="edge15" class="edge">
<title>[root] provider[&quot;registry.terraform.io/ciscodevnet/aci&quot;] (close)&#45;&gt;[root] aci_subnet.subnet_app1 (expand)</title>
<path fill="none" stroke="black" d="M723.57,-360.05C710.25,-351.01 693.68,-339.74 679.23,-329.93"/>
<polygon fill="black" stroke="black" points="680.8,-326.76 670.56,-324.03 676.86,-332.55 680.8,-326.76"/>
</g>
<!-- [root] provider[&quot;registry.terraform.io/ciscodevnet/aci&quot;] (close)&#45;&gt;[root] aci_subnet.subnet_app2 (expand) -->
<g id="edge16" class="edge">
<title>[root] provider[&quot;registry.terraform.io/ciscodevnet/aci&quot;] (close)&#45;&gt;[root] aci_subnet.subnet_app2 (expand)</title>
<path fill="none" stroke="black" d="M763.58,-359.7C770.89,-351.3 779.81,-341.07 787.84,-331.86"/>
<polygon fill="black" stroke="black" points="790.66,-333.94 794.59,-324.1 785.39,-329.34 790.66,-333.94"/>
</g>
<!-- [root] provider[&quot;registry.terraform.io/ciscodevnet/aci&quot;] (close)&#45;&gt;[root] aci_subnet.subnet_netsvcs (expand) -->
<g id="edge17" class="edge">
<title>[root] provider[&quot;registry.terraform.io/ciscodevnet/aci&quot;] (close)&#45;&gt;[root] aci_subnet.subnet_netsvcs (expand)</title>
<path fill="none" stroke="black" d="M803.19,-360.5C836.37,-350.49 878.95,-337.64 914.07,-327.05"/>
<polygon fill="black" stroke="black" points="915.19,-330.36 923.76,-324.12 913.17,-323.66 915.19,-330.36"/>
</g>
<!-- [root] provider[&quot;registry.terraform.io/ciscodevnet/aci&quot;] (close)&#45;&gt;[root] aci_vrf.blue_vrf (expand) -->
<g id="edge18" class="edge">
<title>[root] provider[&quot;registry.terraform.io/ciscodevnet/aci&quot;] (close)&#45;&gt;[root] aci_vrf.blue_vrf (expand)</title>
<path fill="none" stroke="black" d="M613.95,-363.3C540.63,-354.75 448.22,-342.23 356.8,-323.9"/>
<polygon fill="black" stroke="black" points="357.31,-320.43 346.81,-321.87 355.92,-327.29 357.31,-320.43"/>
</g>
<!-- [root] root -->
<g id="node17" class="node">
<title>[root] root</title>
<ellipse fill="none" stroke="black" cx="294.5" cy="-450" rx="47.39" ry="18"/>
<text text-anchor="middle" x="294.5" y="-446.3" font-family="Times,serif" font-size="14.00">[root] root</text>
</g>
<!-- [root] root&#45;&gt;[root] output.aci_tenant_dn -->
<g id="edge20" class="edge">
<title>[root] root&#45;&gt;[root] output.aci_tenant_dn</title>
<path fill="none" stroke="black" d="M248.56,-445.11C187.93,-438.92 86.19,-424.48 63.5,-396 33.06,-357.79 45.11,-296.73 55.83,-261.81"/>
<polygon fill="black" stroke="black" points="59.16,-262.88 58.92,-252.28 52.5,-260.72 59.16,-262.88"/>
</g>
<!-- [root] root&#45;&gt;[root] output.aci_tenant_name -->
<g id="edge21" class="edge">
<title>[root] root&#45;&gt;[root] output.aci_tenant_name</title>
<path fill="none" stroke="black" d="M265.96,-435.5C244.98,-425.58 216.03,-411.88 191.88,-400.46"/>
<polygon fill="black" stroke="black" points="193.09,-397.16 182.55,-396.05 190.09,-403.49 193.09,-397.16"/>
</g>
<!-- [root] root&#45;&gt;[root] output.aci_vrf_dn -->
<g id="edge22" class="edge">
<title>[root] root&#45;&gt;[root] output.aci_vrf_dn</title>
<path fill="none" stroke="black" d="M294.5,-431.7C294.5,-423.98 294.5,-414.71 294.5,-406.11"/>
<polygon fill="black" stroke="black" points="298,-406.1 294.5,-396.1 291,-406.1 298,-406.1"/>
</g>
<!-- [root] root&#45;&gt;[root] output.aci_vrf_name -->
<g id="edge23" class="edge">
<title>[root] root&#45;&gt;[root] output.aci_vrf_name</title>
<path fill="none" stroke="black" d="M322.16,-435.17C341.91,-425.29 368.86,-411.82 391.42,-400.54"/>
<polygon fill="black" stroke="black" points="393.08,-403.62 400.46,-396.02 389.95,-397.36 393.08,-403.62"/>
</g>
<!-- [root] root&#45;&gt;[root] provider[&quot;registry.terraform.io/ciscodevnet/aci&quot;] (close) -->
<g id="edge24" class="edge">
<title>[root] root&#45;&gt;[root] provider[&quot;registry.terraform.io/ciscodevnet/aci&quot;] (close)</title>
<path fill="none" stroke="black" d="M337.62,-442.35C406.24,-431.77 542.41,-410.78 639.17,-395.86"/>
<polygon fill="black" stroke="black" points="639.94,-399.28 649.29,-394.3 638.87,-392.36 639.94,-399.28"/>
</g>
</g>
</svg>
